<?xml version="1.0" encoding="UTF-8" standalone="no"?>
<!-- Created with Inkscape (http://www.inkscape.org/) -->

<svg
   xmlns:dc="http://purl.org/dc/elements/1.1/"
   xmlns:cc="http://creativecommons.org/ns#"
   xmlns:rdf="http://www.w3.org/1999/02/22-rdf-syntax-ns#"
   xmlns:svg="http://www.w3.org/2000/svg"
   xmlns="http://www.w3.org/2000/svg"
   xmlns:sodipodi="http://sodipodi.sourceforge.net/DTD/sodipodi-0.dtd"
   xmlns:inkscape="http://www.inkscape.org/namespaces/inkscape"
   width="744.09448819"
   height="1052.3622047"
   id="svg2"
   version="1.1"
   inkscape:version="0.48.3.1 r9886"
   sodipodi:docname="layout.svg">
  <defs
     id="defs4" />
  <sodipodi:namedview
     id="base"
     pagecolor="#ffffff"
     bordercolor="#666666"
     borderopacity="1.0"
     inkscape:pageopacity="0.0"
     inkscape:pageshadow="2"
     inkscape:zoom="0.35"
     inkscape:cx="595.3247"
     inkscape:cy="210.2468"
     inkscape:document-units="px"
     inkscape:current-layer="layer1"
     showgrid="false"
     showguides="true"
     inkscape:guide-bbox="true"
     inkscape:snap-object-midpoints="true"
     inkscape:window-width="1680"
     inkscape:window-height="956"
     inkscape:window-x="0"
     inkscape:window-y="31"
     inkscape:window-maximized="1" />
  <metadata
     id="metadata7">
    <rdf:RDF>
      <cc:Work
         rdf:about="">
        <dc:format>image/svg+xml</dc:format>
        <dc:type
           rdf:resource="http://purl.org/dc/dcmitype/StillImage" />
        <dc:title />
      </cc:Work>
    </rdf:RDF>
  </metadata>
  <g
     inkscape:label="Layer 1"
     inkscape:groupmode="layer"
     id="layer1">
    <rect
       style="fill:#0000ff;fill-rule:evenodd;stroke:#000000;stroke-width:1.05185139px;stroke-linecap:butt;stroke-linejoin:miter;stroke-opacity:1"
       id="rect2985"
       width="200"
       height="910.40192"
       x="-724.28571"
       y="129.50504" />
    <rect
       style="fill:#ffff00;fill-rule:evenodd;stroke:#000000;stroke-width:1px;stroke-linecap:butt;stroke-linejoin:miter;stroke-opacity:1"
       id="rect2987"
       width="165.71428"
       height="105.71429"
       x="284.28574"
       y="222.3622" />
    <rect
       style="fill:#ff0000;fill-rule:evenodd;stroke:#000000;stroke-width:1px;stroke-linecap:butt;stroke-linejoin:miter;stroke-opacity:1"
       id="rect2989"
       width="134.28572"
       height="114.28571"
       x="285.71429"
       y="676.64789" />
    <rect
       style="fill:#ff7f2a;fill-rule:evenodd;stroke:#000000;stroke-width:1px;stroke-linecap:butt;stroke-linejoin:miter;stroke-opacity:1"
       id="rect2991"
       width="137.14285"
       height="94.285713"
       x="-692.85712"
       y="537.56317" />
    <rect
       style="fill:#ff7f2a"
       id="rect2993"
       width="157.14285"
       height="117.14286"
       x="-705.71423"
       y="352.36215" />
    <path
       style="fill:none;stroke:#000000;stroke-width:1px;stroke-linecap:butt;stroke-linejoin:miter;stroke-opacity:1"
       d="m 114.28571,302.36218 -5.71428,-2.85714"
       id="path2999"
       inkscape:connector-curvature="0" />
    <text
       xml:space="preserve"
       style="font-size:40px;font-style:normal;font-variant:normal;font-weight:normal;font-stretch:normal;text-align:start;line-height:125%;letter-spacing:0px;word-spacing:0px;writing-mode:lr-tb;text-anchor:start;fill:#000000;fill-opacity:1;stroke:none;font-family:Times New Roman;-inkscape-font-specification:'Times New Roman,'"
       x="281.42859"
       y="283.79077"
       id="text3001"
       sodipodi:linespacing="125%"><tspan
         sodipodi:role="line"
         id="tspan3003"
         x="281.42859"
         y="283.79077"
         style="font-size:32px;font-style:normal;font-variant:normal;font-weight:normal;font-stretch:normal;text-align:start;line-height:125%;writing-mode:lr-tb;text-anchor:start;font-family:Times New Roman;-inkscape-font-specification:'Times New Roman,'">Account Info</tspan></text>
    <text
       xml:space="preserve"
       style="font-size:40px;font-style:normal;font-variant:normal;font-weight:normal;font-stretch:normal;text-align:start;line-height:125%;letter-spacing:0px;word-spacing:0px;writing-mode:lr-tb;text-anchor:start;fill:#000000;fill-opacity:1;stroke:none;font-family:Times New Roman;-inkscape-font-specification:'Times New Roman,'"
       x="270"
       y="745.21936"
       id="text3005"
       sodipodi:linespacing="125%"><tspan
         sodipodi:role="line"
         id="tspan3007"
         x="270"
         y="745.21936">Patient Info</tspan></text>
    <text
       xml:space="preserve"
       style="font-size:40px;font-style:normal;font-variant:normal;font-weight:normal;font-stretch:normal;text-align:start;line-height:125%;letter-spacing:0px;word-spacing:0px;writing-mode:lr-tb;text-anchor:start;fill:#000000;fill-opacity:1;stroke:none;font-family:Times New Roman;-inkscape-font-specification:'Times New Roman,'"
       x="-721.42859"
       y="593.79071"
       id="text3009"
       sodipodi:linespacing="125%"><tspan
         sodipodi:role="line"
         id="tspan3011"
         x="-721.42859"
         y="593.79071">Doctor Info</tspan></text>
    <text
       xml:space="preserve"
       style="font-size:40px;font-style:normal;font-variant:normal;font-weight:normal;font-stretch:normal;text-align:start;line-height:125%;letter-spacing:0px;word-spacing:0px;writing-mode:lr-tb;text-anchor:start;fill:#000000;fill-opacity:1;stroke:none;font-family:Times New Roman;-inkscape-font-specification:'Times New Roman,'"
       x="-780"
       y="408.07639"
       id="text3013"
       sodipodi:linespacing="125%"><tspan
         sodipodi:role="line"
         id="tspan3015"
         x="-780"
         y="408.07639">Not real doctor info</tspan></text>
    <rect
       style="fill:#00ff00"
       id="rect3017"
       width="150"
       height="95.714287"
       x="287.14288"
       y="436.64786" />
    <text
       xml:space="preserve"
       style="font-size:40px;font-style:normal;font-variant:normal;font-weight:normal;font-stretch:normal;text-align:start;line-height:125%;letter-spacing:0px;word-spacing:0px;writing-mode:lr-tb;text-anchor:start;fill:#000000;fill-opacity:1;stroke:none;font-family:Times New Roman;-inkscape-font-specification:'Times New Roman,'"
       x="234.28574"
       y="489.50504"
       id="text3019"
       sodipodi:linespacing="125%"><tspan
         sodipodi:role="line"
         id="tspan3021"
         x="234.28574"
         y="489.50504">Medical Record</tspan></text>
    <rect
       style="fill:#ffff00"
       id="rect3023"
       width="34.285713"
       height="32.85714"
       x="-474.28571"
       y="150.93361" />
    <rect
       style="fill:#00ff00"
       id="rect3025"
       width="30"
       height="31.428572"
       x="-477.14288"
       y="213.79076" />
    <rect
       style="fill:#ff0000"
       id="rect3027"
       width="37.142849"
       height="31.428579"
       x="-478.57135"
       y="68.076431" />
    <text
       xml:space="preserve"
       style="font-size:40px;font-style:normal;font-variant:normal;font-weight:normal;font-stretch:normal;text-align:start;line-height:125%;letter-spacing:0px;word-spacing:0px;writing-mode:lr-tb;text-anchor:start;fill:#000000;fill-opacity:1;stroke:none;font-family:Times New Roman;-inkscape-font-specification:'Times New Roman,'"
       x="-425.71429"
       y="178.07646"
       id="text3033"
       sodipodi:linespacing="125%"><tspan
         sodipodi:role="line"
         id="tspan3035"
         x="-425.71429"
         y="178.07646">Everyone</tspan></text>
    <text
       xml:space="preserve"
       style="font-size:40px;font-style:normal;font-variant:normal;font-weight:normal;font-stretch:normal;text-align:start;line-height:125%;letter-spacing:0px;word-spacing:0px;writing-mode:lr-tb;text-anchor:start;fill:#000000;fill-opacity:1;stroke:none;font-family:Times New Roman;-inkscape-font-specification:'Times New Roman,'"
       x="-427.14285"
       y="240.93362"
       id="text3037"
       sodipodi:linespacing="125%"><tspan
         sodipodi:role="line"
         id="tspan3039"
         x="-427.14285"
         y="240.93362">Patient/Radiologist Only</tspan></text>
    <text
       xml:space="preserve"
       style="font-size:40px;font-style:normal;font-variant:normal;font-weight:normal;font-stretch:normal;text-align:start;line-height:125%;letter-spacing:0px;word-spacing:0px;writing-mode:lr-tb;text-anchor:start;fill:#000000;fill-opacity:1;stroke:none;font-family:Times New Roman;-inkscape-font-specification:'Times New Roman,'"
       x="-441.42853"
       y="99.505013"
       id="text3041"
       sodipodi:linespacing="125%"><tspan
         sodipodi:role="line"
         id="tspan3043"
         x="-441.42853"
         y="99.505013">No patient/not real doctor/ </tspan></text>
    <rect
       style="fill:#ff7f2a"
       id="rect3047"
       width="154.28572"
       height="94.285713"
       x="-701.42859"
       y="678.07648" />
    <text
       xml:space="preserve"
       style="font-size:40px;font-style:normal;font-variant:normal;font-weight:normal;font-stretch:normal;text-align:start;line-height:125%;letter-spacing:0px;word-spacing:0px;writing-mode:lr-tb;text-anchor:start;fill:#000000;fill-opacity:1;stroke:none;font-family:Times New Roman;-inkscape-font-specification:'Times New Roman,'"
       x="-767.14288"
       y="736.64789"
       id="text3051"
       sodipodi:linespacing="125%"><tspan
         sodipodi:role="line"
         id="tspan3053"
         x="-767.14288"
         y="736.64789">Manage Accounts</tspan></text>
    <rect
       style="fill:#0000ff"
       id="rect3055"
       width="725.71429"
       height="108.57143"
       x="11.428572"
       y="13.790753" />
    <rect
       style="fill:#ececec"
       id="rect3057"
       width="190"
       height="47.142857"
       x="432.85715"
       y="22.362183" />
    <text
       xml:space="preserve"
       style="font-size:39.19690704px;font-style:normal;font-variant:normal;font-weight:normal;font-stretch:normal;text-align:start;line-height:125%;letter-spacing:0px;word-spacing:0px;writing-mode:lr-tb;text-anchor:start;fill:#000000;fill-opacity:1;stroke:none;font-family:Times New Roman;-inkscape-font-specification:'Times New Roman,'"
       x="446.10806"
       y="55.510559"
       id="text3059"
       sodipodi:linespacing="125%"
       transform="scale(0.97992266,1.0204887)"><tspan
         sodipodi:role="line"
         id="tspan3061"
         x="446.10806"
         y="55.510559">User Name</tspan></text>
    <flowRoot
       xml:space="preserve"
       id="flowRoot3063"
       style="fill:#f9f9f9;stroke:none;stroke-opacity:1;stroke-width:1px;stroke-linejoin:miter;stroke-linecap:butt;fill-opacity:1;font-family:Times New Roman;font-style:normal;font-weight:normal;font-size:40px;line-height:125%;letter-spacing:0px;word-spacing:0px;-inkscape-font-specification:'Times New Roman,';font-stretch:normal;font-variant:normal;text-anchor:start;text-align:start;writing-mode:lr"><flowRegion
         id="flowRegion3065"><rect
           id="rect3067"
           width="97.14286"
           height="42.857143"
           x="631.42859"
           y="26.647896"
           style="fill:#f9f9f9" /></flowRegion><flowPara
         id="flowPara3069" /></flowRoot>    <rect
       style="fill:#f9f9f9"
       id="rect3071"
       width="92.85714"
       height="38.57143"
       x="627.14282"
       y="22.362183" />
    <text
       xml:space="preserve"
       style="font-size:31.98394966px;font-style:normal;font-variant:normal;font-weight:normal;font-stretch:normal;text-align:start;line-height:125%;letter-spacing:0px;word-spacing:0px;writing-mode:lr-tb;text-anchor:start;fill:#000000;fill-opacity:1;stroke:none;font-family:Times New Roman;-inkscape-font-specification:'Times New Roman,'"
       x="656.89496"
       y="45.890083"
       id="text3073"
       sodipodi:linespacing="125%"
       transform="scale(0.95499619,1.0471246)"><tspan
         sodipodi:role="line"
         id="tspan3075"
         x="656.89496"
         y="45.890083">Logout</tspan></text>
    <rect
       style="fill:#f9f9f9"
       id="rect3077"
       width="390"
       height="78.571426"
       x="27.142857"
       y="28.076468" />
    <rect
       y="379.50507"
       x="144.28571"
       height="11.428572"
       width="445.71429"
       id="rect3125"
       style="fill:#1a1a1a" />
    <rect
       style="fill:#ff7f2a"
       id="rect3155"
       width="40"
       height="42.857143"
       x="-471.42856"
       y="285.21933" />
    <text
       xml:space="preserve"
       style="font-size:40px;font-style:normal;font-variant:normal;font-weight:normal;font-stretch:normal;text-align:start;line-height:125%;letter-spacing:0px;word-spacing:0px;writing-mode:lr-tb;text-anchor:start;fill:#000000;fill-opacity:1;stroke:none;font-family:Times New Roman;-inkscape-font-specification:'Times New Roman,'"
       x="-397.14285"
       y="315.21933"
       id="text3157"
       sodipodi:linespacing="125%"><tspan
         sodipodi:role="line"
         id="tspan3159"
         x="-397.14285"
         y="315.21933">Admin Only</tspan></text>
    <flowRoot
       xml:space="preserve"
       id="flowRoot3161"
       style="fill:black;stroke:none;stroke-opacity:1;stroke-width:1px;stroke-linejoin:miter;stroke-linecap:butt;fill-opacity:1;font-family:Times New Roman;font-style:normal;font-weight:normal;font-size:40px;line-height:125%;letter-spacing:0px;word-spacing:0px;-inkscape-font-specification:'Times New Roman,';font-stretch:normal;font-variant:normal;text-anchor:start;text-align:start;writing-mode:lr"><flowRegion
         id="flowRegion3163"><rect
           id="rect3165"
           width="1318.5714"
           height="780"
           x="-501.42856"
           y="52.362183" /></flowRegion><flowPara
         id="flowPara3167" /></flowRoot>    <rect
       style="fill:#ff7f2a"
       id="rect3169"
       width="325.71429"
       height="180"
       x="962.85712"
       y="89.505043" />
    <text
       xml:space="preserve"
       style="font-size:40px;font-style:normal;font-variant:normal;font-weight:normal;font-stretch:normal;text-align:start;line-height:125%;letter-spacing:0px;word-spacing:0px;writing-mode:lr-tb;text-anchor:start;fill:#000000;fill-opacity:1;stroke:none;font-family:Times New Roman;-inkscape-font-specification:'Times New Roman,'"
       x="1020"
       y="170.93361"
       id="text3171"
       sodipodi:linespacing="125%"><tspan
         sodipodi:role="line"
         id="tspan3173"
         x="1020"
         y="170.93361">Sensitive data</tspan></text>
    <rect
       style="fill:#ffffff;stroke:#000000;stroke-width:1.04606688;stroke-opacity:1"
       id="rect3147"
       width="850"
       height="1150.532"
       x="880.50873"
       y="1083.8209"
       transform="matrix(1,0,0.00744289,0.9999723,0,0)" />
    <rect
       style="fill:#241f1c;stroke:#000000;stroke-opacity:1"
       id="rect3936"
       width="848.57141"
       height="31.428572"
       x="891.42859"
       y="1498.0764" />
    <rect
       style="fill:#ffffff;stroke:#000000;stroke-opacity:1"
       id="rect3940"
       width="202.14285"
       height="38.57143"
       x="1069.2858"
       y="1230.2194" />
    <text
       xml:space="preserve"
       style="font-size:22px;font-style:normal;font-variant:normal;font-weight:normal;font-stretch:normal;text-align:start;line-height:125%;letter-spacing:0px;word-spacing:0px;writing-mode:lr-tb;text-anchor:start;fill:#000000;fill-opacity:1;stroke:none;font-family:Times New Roman;-inkscape-font-specification:'Times New Roman,'"
       x="1075.7142"
       y="1257.3623"
       id="text3944"
       sodipodi:linespacing="125%"><tspan
         sodipodi:role="line"
         id="tspan3946"
         x="1075.7142"
         y="1257.3623">Account holder Name</tspan></text>
    <rect
       style="fill:#f9f9f9;stroke:#000000;stroke-opacity:1"
       id="rect3942-6"
       width="203.57143"
       height="40.714287"
       x="1069.6429"
       y="1174.8622" />
    <rect
       style="fill:#00ff00;stroke:#000000;stroke-opacity:1"
       id="rect3942-5"
       width="203.57143"
       height="40.714287"
       x="1068.2142"
       y="1283.4337" />
    <text
       xml:space="preserve"
       style="font-size:22px;font-style:normal;font-variant:normal;font-weight:normal;font-stretch:normal;text-align:start;line-height:125%;letter-spacing:0px;word-spacing:0px;writing-mode:lr-tb;text-anchor:start;fill:#000000;fill-opacity:1;stroke:none;font-family:Times New Roman;-inkscape-font-specification:'Times New Roman,'"
       x="1127.1429"
       y="1208.7908"
       id="text3994"
       sodipodi:linespacing="125%"><tspan
         sodipodi:role="line"
         id="tspan3996"
         x="1127.1429"
         y="1208.7908">Person ID</tspan></text>
    <text
       xml:space="preserve"
       style="font-size:22px;font-style:normal;font-variant:normal;font-weight:normal;font-stretch:normal;text-align:start;line-height:125%;letter-spacing:0px;word-spacing:0px;writing-mode:lr-tb;text-anchor:start;fill:#000000;fill-opacity:1;stroke:none;font-family:Times New Roman;-inkscape-font-specification:'Times New Roman,'"
       x="1136.4288"
       y="1314.5051"
       id="text3998"
       sodipodi:linespacing="125%"><tspan
         sodipodi:role="line"
         id="tspan4000"
         x="1136.4288"
         y="1314.5051">Address</tspan></text>
    <rect
       style="fill:#00ff00;stroke:#000000;stroke-opacity:1"
       id="rect3942-3"
       width="203.57143"
       height="40.714287"
       x="1068.2145"
       y="1390.5767" />
    <text
       xml:space="preserve"
       style="font-size:22px;font-style:normal;font-variant:normal;font-weight:normal;font-stretch:normal;text-align:start;line-height:125%;letter-spacing:0px;word-spacing:0px;writing-mode:lr-tb;text-anchor:start;fill:#000000;fill-opacity:1;stroke:none;font-family:Times New Roman;-inkscape-font-specification:'Times New Roman,'"
       x="1130.7142"
       y="1420.2194"
       id="text4009"
       sodipodi:linespacing="125%"><tspan
         sodipodi:role="line"
         id="tspan4011"
         x="1130.7142"
         y="1420.2194">Email</tspan></text>
    <rect
       style="fill:#00ff00;stroke:#000000;stroke-opacity:1"
       id="rect3942-9"
       width="203.57143"
       height="40.714287"
       x="-1271.0714"
       y="1339.8622"
       transform="scale(-1,1)" />
    <text
       xml:space="preserve"
       style="font-size:22px;font-style:normal;font-variant:normal;font-weight:normal;font-stretch:normal;text-align:start;line-height:125%;letter-spacing:0px;word-spacing:0px;writing-mode:lr-tb;text-anchor:start;fill:#000000;fill-opacity:1;stroke:none;font-family:Times New Roman;-inkscape-font-specification:'Times New Roman,'"
       x="1141.4286"
       y="1370.9337"
       id="text4020"
       sodipodi:linespacing="125%"><tspan
         sodipodi:role="line"
         id="tspan4022"
         x="1141.4286"
         y="1370.9337">Phone</tspan></text>
    <rect
       style="fill:#ffffff;stroke:#000000;stroke-opacity:1"
       id="rect4026"
       width="305.71429"
       height="253.57143"
       x="1292.8572"
       y="1176.6479" />
    <text
       xml:space="preserve"
       style="font-size:22px;font-style:normal;font-variant:normal;font-weight:normal;font-stretch:normal;text-align:start;line-height:125%;letter-spacing:0px;word-spacing:0px;writing-mode:lr-tb;text-anchor:start;fill:#000000;fill-opacity:1;stroke:none;font-family:Times New Roman;-inkscape-font-specification:'Times New Roman,'"
       x="1410"
       y="1307.3622"
       id="text4035"
       sodipodi:linespacing="125%"><tspan
         sodipodi:role="line"
         id="tspan4037"
         x="1410"
         y="1307.3622">VALUES</tspan></text>
    <rect
       style="fill:#ffffff;stroke:#000000;stroke-opacity:1"
       id="rect4039"
       width="297.85715"
       height="39.285713"
       x="1000.3571"
       y="1748.6838" />
    <rect
       style="fill:#ffffff;stroke:#000000;stroke-opacity:1"
       id="rect4039-5"
       width="297.85715"
       height="39.285713"
       x="1298.5714"
       y="1788.3268" />
    <rect
       style="fill:#ffffff;stroke:#000000;stroke-opacity:1"
       id="rect4039-2"
       width="297.85715"
       height="39.285713"
       x="999.99994"
       y="1787.6124" />
    <rect
       style="fill:#ffffff;stroke:#000000;stroke-opacity:1"
       id="rect4039-28"
       width="297.85715"
       height="39.285713"
       x="1000.357"
       y="1827.7195" />
    <rect
       style="fill:#ffffff;stroke:#000000;stroke-opacity:1"
       id="rect4039-6"
       width="297.85715"
       height="39.285713"
       x="1298.2142"
       y="1828.4337" />
    <rect
       style="fill:#ffffff;stroke:#000000;stroke-width:2.22882724;stroke-opacity:1"
       id="rect4039-283"
       width="594.52869"
       height="97.773827"
       x="1000.3571"
       y="1866.2909" />
    <rect
       style="fill:#ffffff;stroke:#000000;stroke-opacity:1"
       id="rect4039-62"
       width="297.85715"
       height="39.285713"
       x="1298.5714"
       y="1748.3268" />
    <rect
       style="fill:#ffffff;stroke:#000000;stroke-opacity:1"
       id="rect4039-1"
       width="297.85715"
       height="39.285713"
       x="1151.7858"
       y="1711.2909" />
    <text
       xml:space="preserve"
       style="font-size:13.59032536px;font-style:normal;font-variant:normal;font-weight:normal;font-stretch:normal;text-align:start;line-height:125%;letter-spacing:0px;word-spacing:0px;writing-mode:lr-tb;text-anchor:start;fill:#000000;fill-opacity:1;stroke:none;font-family:Times New Roman;-inkscape-font-specification:'Times New Roman,'"
       x="1261.2111"
       y="1721.9581"
       id="text4250"
       sodipodi:linespacing="125%"
       transform="scale(0.9985876,1.0014144)"><tspan
         sodipodi:role="line"
         id="tspan4252"
         x="1261.2111"
         y="1721.9581">(SORTED AND INVISIBLE)</tspan><tspan
         sodipodi:role="line"
         x="1261.2111"
         y="1738.946"
         id="tspan4254">Record id</tspan></text>
    <text
       xml:space="preserve"
       style="font-size:22px;font-style:normal;font-variant:normal;font-weight:normal;font-stretch:normal;text-align:start;line-height:125%;letter-spacing:0px;word-spacing:0px;writing-mode:lr-tb;text-anchor:start;fill:#000000;fill-opacity:1;stroke:none;font-family:Times New Roman;-inkscape-font-specification:'Times New Roman,'"
       x="1066.4286"
       y="1768.0765"
       id="text4256"
       sodipodi:linespacing="125%"><tspan
         sodipodi:role="line"
         id="tspan4258"
         x="1066.4286"
         y="1768.0765">Doctor Name</tspan></text>
    <text
       xml:space="preserve"
       style="font-size:22px;font-style:normal;font-variant:normal;font-weight:normal;font-stretch:normal;text-align:start;line-height:125%;letter-spacing:0px;word-spacing:0px;writing-mode:lr-tb;text-anchor:start;fill:#000000;fill-opacity:1;stroke:none;font-family:Times New Roman;-inkscape-font-specification:'Times New Roman,'"
       x="1385"
       y="1765.9337"
       id="text4260"
       sodipodi:linespacing="125%"><tspan
         sodipodi:role="line"
         id="tspan4262"
         x="1385"
         y="1765.9337">Radiologist</tspan></text>
    <text
       xml:space="preserve"
       style="font-size:22px;font-style:normal;font-variant:normal;font-weight:normal;font-stretch:normal;text-align:start;line-height:125%;letter-spacing:0px;word-spacing:0px;writing-mode:lr-tb;text-anchor:start;fill:#000000;fill-opacity:1;stroke:none;font-family:Times New Roman;-inkscape-font-specification:'Times New Roman,'"
       x="1070.7142"
       y="1842.3623"
       id="text4264"
       sodipodi:linespacing="125%"><tspan
         sodipodi:role="line"
         id="tspan4266"
         x="1070.7142"
         y="1842.3623">Test Type</tspan></text>
    <text
       xml:space="preserve"
       style="font-size:22px;font-style:normal;font-variant:normal;font-weight:normal;font-stretch:normal;text-align:start;line-height:125%;letter-spacing:0px;word-spacing:0px;writing-mode:lr-tb;text-anchor:start;fill:#000000;fill-opacity:1;stroke:none;font-family:Times New Roman;-inkscape-font-specification:'Times New Roman,'"
       x="1060"
       y="1804.5054"
       id="text4268"
       sodipodi:linespacing="125%"><tspan
         sodipodi:role="line"
         id="tspan4270"
         x="1060"
         y="1804.5054">Prescribe Date</tspan></text>
    <text
       xml:space="preserve"
       style="font-size:22px;font-style:normal;font-variant:normal;font-weight:normal;font-stretch:normal;text-align:start;line-height:125%;letter-spacing:0px;word-spacing:0px;writing-mode:lr-tb;text-anchor:start;fill:#000000;fill-opacity:1;stroke:none;font-family:Times New Roman;-inkscape-font-specification:'Times New Roman,'"
       x="1395.0001"
       y="1801.6479"
       id="text4272"
       sodipodi:linespacing="125%"><tspan
         sodipodi:role="line"
         id="tspan4274"
         x="1395.0001"
         y="1801.6479">Test Date</tspan></text>
    <text
       xml:space="preserve"
       style="font-size:22px;font-style:normal;font-variant:normal;font-weight:normal;font-stretch:normal;text-align:start;line-height:125%;letter-spacing:0px;word-spacing:0px;writing-mode:lr-tb;text-anchor:start;fill:#000000;fill-opacity:1;stroke:none;font-family:Times New Roman;-inkscape-font-specification:'Times New Roman,'"
       x="1390"
       y="1841.6481"
       id="text4304"
       sodipodi:linespacing="125%"><tspan
         sodipodi:role="line"
         id="tspan4306"
         x="1390"
         y="1841.6481">Diagnosis</tspan></text>
    <text
       xml:space="preserve"
       style="font-size:22px;font-style:normal;font-variant:normal;font-weight:normal;font-stretch:normal;text-align:start;line-height:125%;letter-spacing:0px;word-spacing:0px;writing-mode:lr-tb;text-anchor:start;fill:#000000;fill-opacity:1;stroke:none;font-family:Times New Roman;-inkscape-font-specification:'Times New Roman,'"
       x="1241.4286"
       y="1888.0765"
       id="text4308"
       sodipodi:linespacing="125%"><tspan
         sodipodi:role="line"
         id="tspan4310"
         x="1241.4286"
         y="1888.0765">Decscription</tspan></text>
    <text
       xml:space="preserve"
       style="font-size:22px;font-style:normal;font-variant:normal;font-weight:normal;font-stretch:normal;text-align:start;line-height:149.00000095%;letter-spacing:0px;word-spacing:0px;writing-mode:lr-tb;text-anchor:start;fill:#000000;fill-opacity:1;stroke:none;font-family:Times New Roman;-inkscape-font-specification:'Times New Roman,'"
       x="1626.4286"
       y="1861.6481"
       id="text5253"
       sodipodi:linespacing="149%"><tspan
         sodipodi:role="line"
         id="tspan5255"
         x="1626.4286"
         y="1861.6481"
         style="font-size:48px;line-height:149.00000095%">* X</tspan></text>
    <rect
       style="fill:#ffffff;stroke:#000000;stroke-opacity:1"
       id="rect5257"
       width="311.42856"
       height="30"
       x="917.14288"
       y="1580.9335" />
    <rect
       style="fill:#ffffff;stroke:#000000;stroke-opacity:1"
       id="rect5259"
       width="374.28571"
       height="32.857143"
       x="1251.4286"
       y="1580.9336" />
    <text
       xml:space="preserve"
       style="font-size:22px;font-style:normal;font-variant:normal;font-weight:normal;font-stretch:normal;text-align:start;line-height:125%;letter-spacing:0px;word-spacing:0px;writing-mode:lr-tb;text-anchor:start;fill:#000000;fill-opacity:1;stroke:none;font-family:Times New Roman;-inkscape-font-specification:'Times New Roman,'"
       x="965.71429"
       y="1598.0764"
       id="text5261"
       sodipodi:linespacing="125%"><tspan
         sodipodi:role="line"
         id="tspan5263"
         x="965.71429"
         y="1598.0764">Start Search Date</tspan></text>
    <text
       xml:space="preserve"
       style="font-size:22px;font-style:normal;font-variant:normal;font-weight:normal;font-stretch:normal;text-align:start;line-height:125%;letter-spacing:0px;word-spacing:0px;writing-mode:lr-tb;text-anchor:start;fill:#000000;fill-opacity:1;stroke:none;font-family:Times New Roman;-inkscape-font-specification:'Times New Roman,'"
       x="1348.5713"
       y="1602.3621"
       id="text5265"
       sodipodi:linespacing="125%"><tspan
         sodipodi:role="line"
         id="tspan5267"
         x="1348.5713"
         y="1602.3621">End Search Date</tspan></text>
    <rect
       style="fill:#ffffff;stroke:#000000;stroke-opacity:1"
       id="rect5269"
       width="447.14285"
       height="32.857143"
       x="1064.2856"
       y="1659.505" />
    <text
       xml:space="preserve"
       style="font-size:22px;font-style:normal;font-variant:normal;font-weight:normal;font-stretch:normal;text-align:start;line-height:125%;letter-spacing:0px;word-spacing:0px;writing-mode:lr-tb;text-anchor:start;fill:#000000;fill-opacity:1;stroke:none;font-family:Times New Roman;-inkscape-font-specification:'Times New Roman,'"
       x="1234.2856"
       y="1678.0765"
       id="text5271"
       sodipodi:linespacing="125%"><tspan
         sodipodi:role="line"
         id="tspan5273"
         x="1234.2856"
         y="1678.0765">RESULTS</tspan></text>
    <path
       style="fill:#280b0b;stroke:#000000;stroke-opacity:1"
       id="path5275"
       d="m 1064.335,1685.7414 c -7.1539,-0.1367 -14.3099,-0.1229 -21.4649,-0.1313 -6.8897,-0 -13.7792,0.05 -20.6687,0.071 -4.5887,-0.1207 -9.1077,1.086 -13.5033,2.3005 -2.3331,0.5393 -2.1852,0.3319 -4.2471,1.4662 -0.6182,0.34 -2.4039,1.477 -1.7906,1.1283 29.3218,-16.6704 19.2162,-11.3207 13.0074,-7.2954 -3.575,2.0748 -6.4252,4.8158 -8.511,8.369 -1.6739,4.2269 -2.3497,8.8125 -2.8993,13.3075 -0.2646,4.221 -0.5842,8.4124 -1.1499,12.6041 -0.4015,3.4121 -0.8509,6.8553 -0.6406,10.2948 0.6295,2.7375 0.5117,5.4706 0.2819,8.242 -0.1149,2.5823 -0.8481,5.0775 -1.4778,7.57 -0.8995,2.5877 -1.36475,5.2667 -1.62367,7.9842 -0.16217,3.4792 -1.93249,6.6444 -3.2945,9.7908 -1.14595,2.8612 -2.89555,5.3283 -4.68619,7.8014 -1.72327,2.3193 -2.7964,5.0275 -3.88899,7.6816 -0.75711,2.3296 -1.0688,4.7586 -1.69259,7.1278 0,0 -19.16054,9.1852 -19.16054,9.1852 l 0,0 c 0.56867,-2.4565 1.25751,-4.8403 1.60716,-7.3461 0.93528,-2.8503 2.26106,-5.6148 3.70269,-8.2349 0.62771,-0.8681 1.15828,-1.8088 1.84132,-2.6341 0.2873,-0.3472 0.71182,-0.5708 0.97447,-0.937 0.82872,-1.1552 1.25379,-2.685 2.01118,-3.889 0.83375,-1.5334 1.38216,-3.1359 2.11045,-4.7208 0.45054,-0.9804 1.1575,-1.8587 1.43538,-2.9013 0.12428,-0.4663 0.0419,-0.9642 0.0629,-1.4464 0.19024,-2.8316 0.49456,-5.6692 1.41523,-8.372 0.79593,-2.2999 1.31828,-4.7948 1.67539,-7.1844 0.22796,-2.671 0.62151,-5.2986 -0.0957,-7.938 -0.36828,-3.5704 0.0865,-7.1797 0.48311,-10.7337 0.57298,-4.1929 1.10293,-8.3626 1.256,-12.599 0.4702,-4.7062 1.25585,-9.3874 2.50462,-13.9499 1.7002,-3.9397 4.40768,-7.1425 8.08523,-9.3986 9.32001,-6.094 18.53731,-13.1282 29.44551,-15.7919 4.5207,-1.0795 9.0758,-2.1354 13.7629,-1.8328 6.8244,0.021 13.6488,0.076 20.4733,0.071 7.2755,-0.01 14.5521,0 21.8266,-0.1313 0,0 -17.1673,12.4727 -17.1673,12.4727 z"
       inkscape:connector-curvature="0" />
    <path
       style="fill:#2b0000;stroke:#000000;stroke-opacity:1"
       id="path5277"
       d="m 938.86222,1747.2855 c 3.53424,6.3288 8.22762,11.8613 12.71035,17.5134 3.21323,4.0515 6.14332,7.9472 9.27518,12.0643 8.39273,11.0417 14.20523,23.7095 21.99307,35.1388 4.88923,6.6545 9.8891,13.2586 15.64793,19.1894 2.77015,2.8619 6.02305,4.4508 9.92045,4.944 6.3169,-1.1955 22.3308,-11.7462 -15.06894,8.9376 -0.3668,0.2029 0.72547,-0.4256 1.05343,-0.6866 0.87902,-0.6996 1.00343,-1.0057 1.64912,-1.9076 1.78532,-3.0509 3.31717,-6.2161 4.42529,-9.5729 1.2092,-6.1917 2.6744,-12.2971 4.2784,-18.3986 2.1932,-10.0198 4.1171,-20.0855 6.0076,-30.1647 1.1678,-5.4401 1.5285,-11.0235 3.4101,-16.2832 1.0177,-2.7072 2.2465,-5.3044 2.9311,-8.1227 0.5452,-2.7071 0.5775,-5.4783 0.6144,-8.2289 0.021,-2.9107 -0.01,-5.8213 0.01,-8.7319 0,-2.194 -0,-4.388 -0.01,-6.582 0,0 18.8743,-9.6185 18.8743,-9.6185 l 0,0 c -0,2.1929 -0.01,4.3859 0.01,6.5788 0.027,2.9137 0.029,5.8277 0.03,8.7416 -0.016,2.8698 -0.022,5.752 -0.4258,8.5994 -0.5279,2.9819 -1.5957,5.7067 -2.8324,8.4587 -0.2088,0.502 -1.2434,2.9645 -1.3845,3.4064 -1.3178,4.1266 -1.3914,8.5762 -2.5772,12.7393 -2.1125,10.0357 -3.9646,20.1347 -5.8589,30.2119 -1.4853,6.097 -3.1903,12.113 -4.0053,18.3544 -0.9085,3.5155 -2.3259,6.8043 -4.1157,9.9591 -3.8303,8.6289 -15.0504,15.4566 -24.37914,14.4581 -4.12061,-0.9639 -7.56395,-3.0525 -10.44676,-6.1888 -5.69249,-6.1294 -10.60536,-12.9132 -15.48148,-19.6991 -7.57209,-11.5162 -13.27556,-24.1895 -21.67273,-35.1796 -7.5199,-9.8 -15.67111,-19.0987 -22.76561,-29.2162 0,0 18.18924,-10.7139 18.18924,-10.7139 z"
       inkscape:connector-curvature="0" />
    <rect
       style="fill:#280b0b;stroke:#000000;stroke-opacity:1"
       id="rect5281"
       width="97.14286"
       height="24.285715"
       x="1638.5714"
       y="1585.2194" />
    <text
       xml:space="preserve"
       style="font-size:22px;font-style:normal;font-variant:normal;font-weight:normal;font-stretch:normal;text-align:start;line-height:125%;letter-spacing:0px;word-spacing:0px;writing-mode:lr-tb;text-anchor:start;fill:#000000;fill-opacity:1;stroke:none;font-family:Times New Roman;-inkscape-font-specification:'Times New Roman,'"
       x="1076.8225"
       y="2108.9817"
       id="text5283"
       sodipodi:linespacing="125%"><tspan
         sodipodi:role="line"
         id="tspan5285"
         x="1076.8225"
         y="2108.9817"
         style="font-size:56px">PATIENT LAYOUT/</tspan><tspan
         sodipodi:role="line"
         x="1076.8225"
         y="2178.9817"
         style="font-size:56px"
         id="tspan5307">RADIOLOGIST LAYOUT</tspan></text>
    <flowRoot
       xml:space="preserve"
       id="flowRoot5287"
       style="fill:black;stroke:none;stroke-opacity:1;stroke-width:1px;stroke-linejoin:miter;stroke-linecap:butt;fill-opacity:1;font-family:Times New Roman;font-style:normal;font-weight:normal;font-size:22px;line-height:125%;letter-spacing:0px;word-spacing:0px;-inkscape-font-specification:'Times New Roman,';font-stretch:normal;font-variant:normal;text-anchor:start;text-align:start;writing-mode:lr"><flowRegion
         id="flowRegion5289"><rect
           id="rect5291"
           width="636.39612"
           height="119.198"
           x="1078.8429"
           y="935.18451" /></flowRegion><flowPara
         id="flowPara5293"></flowPara></flowRoot>    <rect
       style="fill:#ffffff;stroke:#000000;stroke-width:0.68305254;stroke-opacity:1"
       id="rect5303"
       width="1311.178"
       height="704.11865"
       x="-533.36053"
       y="1554.9602" />
    <rect
       style="fill:#ffffff;stroke:#000000;stroke-width:0.65642208;stroke-opacity:1"
       id="rect5309"
       width="230.69022"
       height="40.406101"
       x="-380.41119"
       y="1569.6821" />
    <rect
       style="fill:#ffffff;stroke:#000000;stroke-width:0.81911141;stroke-opacity:1"
       id="rect5311"
       width="382.25397"
       height="44.446712"
       x="-103.03556"
       y="1567.5399" />
    <rect
       style="fill:#ffffff;stroke:#000000;stroke-width:0.73952681;stroke-opacity:1"
       id="rect5313"
       width="303.84882"
       height="38.385796"
       x="317.1879"
       y="1567.54" />
    <rect
       style="fill:#280b0b;stroke:#000000;stroke-width:1.24234605;stroke-opacity:1"
       id="rect5281-7"
       width="149.9326"
       height="24.285715"
       x="636.05023"
       y="1577.6205" />
    <text
       xml:space="preserve"
       style="font-size:22px;font-style:normal;font-variant:normal;font-weight:normal;font-stretch:normal;text-align:start;line-height:125%;letter-spacing:0px;word-spacing:0px;writing-mode:lr-tb;text-anchor:start;fill:#000000;fill-opacity:1;stroke:none;font-family:Times New Roman;-inkscape-font-specification:'Times New Roman,'"
       x="-305.06607"
       y="1597.8853"
       id="text5333"
       sodipodi:linespacing="125%"><tspan
         sodipodi:role="line"
         id="tspan5335"
         x="-305.06607"
         y="1597.8853">PatientID</tspan></text>
    <text
       xml:space="preserve"
       style="font-size:22px;font-style:normal;font-variant:normal;font-weight:normal;font-stretch:normal;text-align:start;line-height:125%;letter-spacing:0px;word-spacing:0px;writing-mode:lr-tb;text-anchor:start;fill:#000000;fill-opacity:1;stroke:none;font-family:Times New Roman;-inkscape-font-specification:'Times New Roman,'"
       x="26.304577"
       y="1593.7836"
       id="text5337"
       sodipodi:linespacing="125%"><tspan
         sodipodi:role="line"
         id="tspan5339"
         x="26.304577"
         y="1593.7836">First Name</tspan></text>
    <text
       xml:space="preserve"
       style="font-size:22px;font-style:normal;font-variant:normal;font-weight:normal;font-stretch:normal;text-align:start;line-height:125%;letter-spacing:0px;word-spacing:0px;writing-mode:lr-tb;text-anchor:start;fill:#000000;fill-opacity:1;stroke:none;font-family:Times New Roman;-inkscape-font-specification:'Times New Roman,'"
       x="426.30469"
       y="1591.7633"
       id="text5341"
       sodipodi:linespacing="125%"><tspan
         sodipodi:role="line"
         id="tspan5343"
         x="426.30469"
         y="1591.7633">Last name</tspan></text>
    <text
       xml:space="preserve"
       style="font-size:22px;font-style:normal;font-variant:normal;font-weight:normal;font-stretch:normal;text-align:start;line-height:125%;letter-spacing:0px;word-spacing:0px;writing-mode:lr-tb;text-anchor:start;fill:#000000;fill-opacity:1;stroke:none;font-family:Times New Roman;-inkscape-font-specification:'Times New Roman,'"
       x="-143.27922"
       y="1595.7836"
       id="text5345"
       sodipodi:linespacing="125%"><tspan
         sodipodi:role="line"
         id="tspan5347"
         x="-143.27922"
         y="1595.7836">OR</tspan></text>
    <text
       xml:space="preserve"
       style="font-size:22px;font-style:normal;font-variant:normal;font-weight:normal;font-stretch:normal;text-align:start;line-height:125%;letter-spacing:0px;word-spacing:0px;writing-mode:lr-tb;text-anchor:start;fill:#000000;fill-opacity:1;stroke:none;font-family:Times New Roman;-inkscape-font-specification:'Times New Roman,'"
       x="288.82242"
       y="1591.743"
       id="text5349"
       sodipodi:linespacing="125%"><tspan
         sodipodi:role="line"
         id="tspan5351"
         x="288.82242"
         y="1591.743">&amp;</tspan></text>
    <rect
       style="fill:#280b0b;fill-opacity:0;stroke:#000000;stroke-width:0.65134978;stroke-opacity:1"
       id="rect5359"
       width="127.71201"
       height="44.446712"
       x="-395.59534"
       y="1860.0508" />
    <rect
       style="fill:#280b0b;fill-opacity:0;stroke:#000000;stroke-width:0.67678416;stroke-opacity:1"
       id="rect5359-0"
       width="137.88074"
       height="44.446712"
       x="-270.33643"
       y="1856.0101" />
    <rect
       style="fill:#280b0b;fill-opacity:0;stroke:#000000;stroke-width:0.63571018;stroke-opacity:1"
       id="rect5359-05"
       width="121.65266"
       height="44.446712"
       x="-132.95564"
       y="1858.0305" />
    <text
       xml:space="preserve"
       style="font-size:22px;font-style:normal;font-variant:normal;font-weight:normal;font-stretch:normal;text-align:start;line-height:149.00000095%;letter-spacing:0px;word-spacing:0px;writing-mode:lr-tb;text-anchor:start;fill:#000000;fill-opacity:1;stroke:none;font-family:Times New Roman;-inkscape-font-specification:'Times New Roman,'"
       x="-293.16135"
       y="2009.0837"
       id="text5253-5"
       sodipodi:linespacing="149%"><tspan
         sodipodi:role="line"
         id="tspan5255-6"
         x="-293.16135"
         y="2009.0837"
         style="font-size:48px;line-height:149.00000095%">* X</tspan></text>
    <path
       style="fill:none;stroke:#000000;stroke-width:1px;stroke-linecap:butt;stroke-linejoin:miter;stroke-opacity:1"
       d="m -299.00515,1963.5197 c 0,10.1016 0,20.2031 0,30.3046 0,0.49 0.065,5.996 0,6.0609 -0.47619,0.4762 -1.54412,-0.4762 -2.02031,0 -0.065,0.065 0,5.571 0,6.061 0,11.4483 0,22.8967 0,34.3451 0,1.4052 -0.3653,9.371 0,10.1016 0.26299,0.526 3.59963,2.4613 2.02031,4.0406 -0.8963,0.8963 -5.55448,-1.2607 -6.06092,-2.0203 -0.74711,-1.1207 0.42592,-2.7629 0,-4.0406 -0.45601,-1.3681 -5.28927,-4.5177 -6.06091,-6.061 -0.40052,-0.801 0.41302,-5.6478 0,-6.0609 -0.47619,-0.4762 -1.54412,0.4762 -2.02031,0 -0.47619,-0.4762 -0.67343,-2.0203 0,-2.0203 0.95238,0 1.34687,1.3469 2.02031,2.0203 0.67343,0.6735 1.59438,1.1685 2.0203,2.0203 0.30117,0.6024 -0.30117,1.418 0,2.0203 0.42592,0.8519 1.59439,1.1685 2.02031,2.0203 0.60234,1.2047 -0.95238,3.0883 0,4.0407 1.06479,1.0647 2.61204,1.5441 4.04061,2.0203 0.25995,0.087 5.89359,0.084 6.06091,0 0.85184,-0.426 1.16847,-1.5944 2.02031,-2.0203 0.60234,-0.3012 1.54411,0.4761 2.0203,0 0.47619,-0.4762 -0.47619,-1.5442 0,-2.0203 0.47619,-0.4762 1.41797,0.3011 2.02031,0 0.85183,-0.426 1.34687,-1.3469 2.0203,-2.0204 0.67344,-0.6734 1.59439,-1.1684 2.02031,-2.0203 0.30117,-0.6023 -0.47619,-1.5441 0,-2.0203 4.18008,-4.18 -0.16341,6.3878 4.04061,-2.0203 0.60234,-1.2046 -0.95238,-3.0882 0,-4.0406 0.47619,-0.4762 1.41796,0.3012 2.0203,0 0.85184,-0.4259 1.34687,-1.3469 2.02031,-2.0203 0.67343,-0.6734 1.59439,-1.1685 2.0203,-2.0203 0.30117,-0.6023 -0.47619,-1.5441 0,-2.0203 2.97269,0 1.54412,0.4762 4.04061,-2.0203"
       id="path5428"
       inkscape:connector-curvature="0" />
    <rect
       style="fill:#280b0b;fill-opacity:0;stroke:#000000;stroke-width:0.65134978;stroke-opacity:1"
       id="rect5359-1"
       width="127.71201"
       height="44.446712"
       x="-9.3077679"
       y="1858.4639" />
    <text
       xml:space="preserve"
       style="font-size:22px;font-style:normal;font-variant:normal;font-weight:normal;font-stretch:normal;text-align:start;line-height:125%;letter-spacing:0px;word-spacing:0px;writing-mode:lr-tb;text-anchor:start;fill:#000000;fill-opacity:1;stroke:none;font-family:Times New Roman;-inkscape-font-specification:'Times New Roman,'"
       x="-351.53308"
       y="1886.7482"
       id="text5448"
       sodipodi:linespacing="125%"><tspan
         sodipodi:role="line"
         id="tspan5450"
         x="-351.53308"
         y="1886.7482">Fname</tspan></text>
    <text
       xml:space="preserve"
       style="font-size:22px;font-style:normal;font-variant:normal;font-weight:normal;font-stretch:normal;text-align:start;line-height:125%;letter-spacing:0px;word-spacing:0px;writing-mode:lr-tb;text-anchor:start;fill:#000000;fill-opacity:1;stroke:none;font-family:Times New Roman;-inkscape-font-specification:'Times New Roman,'"
       x="-220.21326"
       y="1878.667"
       id="text5452"
       sodipodi:linespacing="125%"><tspan
         sodipodi:role="line"
         id="tspan5454"
         x="-220.21326"
         y="1878.667">Lname</tspan></text>
    <text
       xml:space="preserve"
       style="font-size:22px;font-style:normal;font-variant:normal;font-weight:normal;font-stretch:normal;text-align:start;line-height:125%;letter-spacing:0px;word-spacing:0px;writing-mode:lr-tb;text-anchor:start;fill:#000000;fill-opacity:1;stroke:none;font-family:Times New Roman;-inkscape-font-specification:'Times New Roman,'"
       x="-72.129318"
       y="1880.2539"
       id="text5456"
       sodipodi:linespacing="125%"><tspan
         sodipodi:role="line"
         id="tspan5458"
         x="-72.129318"
         y="1880.2539">Address</tspan></text>
    <text
       xml:space="preserve"
       style="font-size:22px;font-style:normal;font-variant:normal;font-weight:normal;font-stretch:normal;text-align:start;line-height:125%;letter-spacing:0px;word-spacing:0px;writing-mode:lr-tb;text-anchor:start;fill:#000000;fill-opacity:1;stroke:none;font-family:Times New Roman;-inkscape-font-specification:'Times New Roman,'"
       x="46.467018"
       y="1886.7482"
       id="text5460"
       sodipodi:linespacing="125%"><tspan
         sodipodi:role="line"
         id="tspan5462"
         x="46.467018"
         y="1886.7482">Phone</tspan></text>
    <rect
       style="fill:#280b0b;fill-opacity:0;stroke:#000000;stroke-width:0.65134978;stroke-opacity:1"
       id="rect5359-09"
       width="127.71201"
       height="44.446712"
       x="-517.63086"
       y="1858.464" />
    <text
       xml:space="preserve"
       style="font-size:22px;font-style:normal;font-variant:normal;font-weight:normal;font-stretch:normal;text-align:start;line-height:125%;letter-spacing:0px;word-spacing:0px;writing-mode:lr-tb;text-anchor:start;fill:#000000;fill-opacity:1;stroke:none;font-family:Times New Roman;-inkscape-font-specification:'Times New Roman,'"
       x="-474.7717"
       y="1888.7686"
       id="text5471"
       sodipodi:linespacing="125%"><tspan
         sodipodi:role="line"
         id="tspan5473"
         x="-474.7717"
         y="1888.7686">Pid</tspan></text>
    <path
       style="fill:#000000;fill-opacity:0;stroke:#000000;stroke-opacity:1"
       id="path5475"
       d="m -295.88743,1559.9653 c 1.71853,-6.5327 2.64793,-13.2275 4.32327,-19.7718 0.97684,-4.5181 2.48289,-8.6505 4.94105,-12.5438 1.82152,-2.9496 2.83165,-6.2744 4.35894,-9.3587 2.34146,-3.3735 4.55675,-6.795 7.01015,-10.0877 2.20622,-3.6895 5.25143,-6.6693 8.50915,-9.4208 10.80595,-8.9842 23.40309,-15.7473 36.0617,-21.7643 -7.87731,4.5102 -15.74695,9.0338 -23.63193,13.5306 -0.65914,0.3759 1.30589,-0.7732 1.95402,-1.1678 1.70259,-1.0365 3.25374,-2.3321 4.9679,-3.3369 9.15021,-5.364 18.35024,-10.6425 27.52536,-15.9638 4.46046,-2.5108 9.12223,-4.3211 14.14813,-5.2787 6.82722,-1.8792 13.45327,-4.3555 20.30998,-6.1923 9.41033,-2.6142 18.92087,-4.7671 28.51643,-6.5817 8.85671,-1.6108 17.8536,-2.0489 26.83429,-2.2415 15.81783,-1.2534 31.607768,-1.9945 47.477141,-2.0717 35.406147,0.7914 70.773476,-0.07 106.152008,-1.405 24.12298,-0.9219 48.237118,-2.042 72.378814,-2.2769 25.273657,-0.1086 50.547607,0.017 75.821187,0.093 15.76212,0.2769 31.53525,-0.2159 47.29662,0.04 14.58219,0.2371 29.16918,1.122 43.73508,1.8069 24.22863,1.2519 48.48552,1.6878 72.74131,1.9626 26.10946,0.2265 52.22028,0.2055 78.33049,0.2169 26.80904,1.1524 53.60095,2.5519 80.42615,3.3039 23.85849,0.2165 47.69722,1.1666 71.54476,1.8445 19.06016,0.3998 38.02137,2.5807 57.05213,3.6598 11.63746,0.8781 23.3304,0.4441 34.97717,0.9422 6.91358,0.2957 9.99946,0.7991 16.85122,1.6221 19.28355,2.2061 38.30844,6.1255 57.48431,9.0583 12.16265,1.4598 24.31238,2.7795 36.30629,5.3025 6.02083,1.4669 11.23748,4.9379 16.48926,8.0903 5.16398,2.6533 8.89945,7.1697 13.38378,10.7372 4.15162,3.2086 8.23413,6.527 11.82604,10.3596 3.50358,3.0158 6.31711,6.591 8.89725,10.3955 3.00352,4.0705 6.14668,8.0046 9.16247,12.0641 2.67782,3.5817 4.70124,7.5472 6.77373,11.4894 1.56472,3.0927 4.26773,5.3243 6.1609,8.1857 2.00284,3.2223 4.14501,6.3394 6.30896,9.455 2.1558,3.1388 4.09683,6.4611 6.39766,9.4968 2.55879,4.0012 5.81594,7.3872 9.07143,10.7992 3.54574,3.0281 6.07657,6.4861 8.14446,10.6475 2.08455,3.5289 3.89295,7.2113 6.08194,10.6773 2.54816,4.1844 4.96552,8.445 7.31028,12.7469 2.80616,5.3551 4.99679,11.0555 8.31723,16.1234 3.07596,3.7302 5.95466,7.5048 8.65832,11.5071 2.88256,4.3865 6.67211,7.979 10.35502,11.6617 3.77784,3.3567 7.61674,6.6148 11.65944,9.6442 3.95575,3.0909 8.91068,3.0045 13.57225,4.055 3.87856,1.6112 6.94123,-0.6067 10.68182,-0.7094 3.70749,0.058 7.41137,0.2414 11.11827,0.3307 0.30199,0.011 0.68219,0.2347 0.90599,0.032 0.20702,-0.1879 0.22642,-0.9763 -0.0168,-0.8385 -8.5524,4.8468 -16.6587,10.4644 -25.28545,15.1775 -0.36724,0.2007 -0.1468,-0.8242 -0.23903,-1.2324 -1.04627,-4.6307 0.35304,2.1144 -0.79725,-3.5625 -1.2907,-4.2004 -2.66539,-8.3815 -4.10423,-12.5339 -1.75237,-4.0451 -2.17855,-8.4264 -3.12992,-12.6732 -1.22588,-3.8217 -1.63769,-7.7833 -1.90999,-11.7652 0.0798,-4.2242 -0.76415,-8.3449 -1.38091,-12.4999 -0.6833,-4.1297 -0.56496,-8.3302 -1.01318,-12.478 -0.55934,-4.5897 -1.83238,-9.035 -2.74638,-13.557 -0.17902,-0.707 -0.35187,-1.4156 -0.53708,-2.1209 -0.51598,-1.9651 -0.74193,-4.8921 -1.8733,-6.6272 -0.0843,-0.1294 0.0657,0.3018 0.0985,0.4527 30.45988,-14.8837 26.64735,-22.2685 25.91966,-10.6259 -0.23526,3.7639 -0.20841,7.5535 -0.21919,11.3225 -0.24388,6.2943 0.12803,12.5201 0.91302,18.7585 0.72866,4.9384 2.6433,9.552 4.34837,14.2065 1.37411,4.5301 2.85308,9.0403 3.89197,13.6631 0.82648,3.8496 1.34122,7.6232 -1.17353,10.8942 -7.354,11.9834 -21.06229,18.9721 -34.63165,22.4859 -6.41684,1.8483 -12.36827,4.8643 -18.77712,6.7431 -6.60594,1.9629 -13.15854,4.6082 -20.06727,5.1897 -4.70713,0.1265 -9.40615,-0.2752 -14.10634,-0.473 -4.0139,-0 -7.97219,1.013 -11.9804,1.4221 -2.02954,0.1898 -4.06667,0.2594 -6.10277,0.3307 0,0 24.18418,-17.7459 24.18418,-17.7459 l 0,0 c 1.99644,-0.1192 3.99378,-0.2402 5.97862,-0.497 4.06952,-0.5377 8.13386,-1.4307 12.2613,-1.0231 4.55621,0.2301 9.13856,0.6346 13.69006,0.1229 6.70352,-1.222 13.15793,-3.5104 19.64927,-5.539 6.34044,-2.1881 12.44576,-5.012 18.89334,-6.9038 10.63054,-4.5502 2.60986,-1.2303 -21.29348,12.9398 -0.55765,0.3306 1.18536,-0.553 1.69475,-0.954 1.32388,-1.0421 2.29213,-2.6918 3.01506,-4.1676 2.95375,-4.2519 -0.95497,0.9908 1.98354,-1.9551 1.71499,-1.7193 0.52448,-4.6814 0.3657,-6.7041 -0.9065,-4.5225 -2.38785,-8.8915 -3.6322,-13.3261 -1.77336,-4.8705 -3.83564,-9.6594 -4.64161,-14.8201 -0.77164,-6.362 -1.29249,-12.6942 -1.01582,-19.1155 -0.0968,-21.4715 -3.54739,-11.7498 26.57579,-30.1584 1.90761,2.9576 1.65444,6.9095 3.01141,10.1197 0.84623,4.5899 2.19647,9.0609 2.85695,13.6855 0.66633,4.1209 0.35675,8.329 0.99364,12.4652 0.58833,4.2384 1.6371,8.4114 1.48097,12.7197 0.21375,3.8162 0.53554,7.6265 1.71945,11.2877 1.02381,4.1269 1.15398,8.4774 2.90558,12.4324 1.528,4.2616 2.88565,8.5851 4.35987,12.8668 0.0571,0.2795 1.33464,4.9307 1.26283,4.9869 -67.19622,52.6144 -13.23274,18.1176 -26.67701,17.1854 -3.59576,-0.1647 -7.22389,-0.3645 -10.80944,0.027 -3.80256,0.8833 -7.36804,1.0749 -11.16378,-0.1471 -5.09696,-0.9517 -10.1716,-1.7144 -14.30302,-5.1597 -4.11892,-3.128 -8.03741,-6.5081 -11.83305,-10.021 -3.83253,-3.8107 -7.71576,-7.5859 -10.7032,-12.1347 -2.68974,-4.0303 -5.74924,-7.7103 -8.66246,-11.5831 -3.24067,-5.1876 -5.54209,-10.8844 -8.37089,-16.2998 -2.3978,-4.2061 -4.81976,-8.3973 -7.32228,-12.5409 -2.26634,-3.5458 -4.1576,-7.3038 -6.23798,-10.9593 -1.91003,-3.8976 -4.44559,-6.9749 -7.67988,-9.8727 -3.31734,-3.5021 -6.5672,-7.0503 -9.26281,-11.0734 -2.32804,-3.0688 -4.34237,-6.3829 -6.48561,-9.5829 -2.18867,-3.1231 -4.2939,-6.2943 -6.38511,-9.4822 -1.97059,-2.9204 -4.75226,-5.2641 -6.29373,-8.492 -1.95499,-3.8306 -3.86321,-7.6761 -6.43952,-11.144 -2.99865,-4.1223 -6.27681,-7.9964 -9.26875,-12.1243 -2.50949,-3.6594 -5.30149,-7.0261 -8.60474,-10.0116 -3.55569,-3.7046 -7.61362,-6.8569 -11.62726,-10.0468 -4.25593,-3.6101 -8.04538,-7.8459 -13.11041,-10.3739 -5.03073,-2.9644 -10.00985,-6.1806 -15.81759,-7.3766 -11.71566,-2.581 -23.61707,-3.9876 -35.48538,-5.6747 -19.1707,-3.0826 -38.2441,-6.8608 -57.57682,-8.8452 -17.17913,-1.8657 -34.42984,-1.5458 -51.6727,-2.482 -18.93888,-1.1858 -37.81755,-3.3591 -56.79739,-3.7412 -23.73368,-0.7913 -47.45891,-1.8261 -71.20756,-2.0798 -26.79414,-0.7777 -53.55048,-2.3243 -80.33749,-3.2679 -26.18034,0.021 -52.36104,0.057 -78.54105,-0.102 -24.21319,-0.241 -48.42573,-0.7901 -72.60305,-2.1995 -30.24702,-1.597 -60.48904,-2.4426 -90.78422,-1.8536 -25.48067,0.069 -50.962134,0.112 -76.441468,0.4018 -23.787115,0.3561 -47.573923,0.7877 -71.3505128,1.605 -35.6106782,1.1446 -71.2085772,1.8984 -106.8399392,1.8404 -16.19818,0.4234 -32.30081,1.6761 -48.457,2.8325 -8.87293,0.3123 -17.75742,0.8439 -26.4851,2.5864 -9.5757,1.9171 -19.08055,4.12 -28.46252,6.8449 -6.87026,2.0217 -13.57203,4.5906 -20.55032,6.2204 -4.83004,1.3773 -9.3635,3.4742 -13.72242,5.9688 7.90368,-4.624 15.76855,-9.3151 23.71104,-13.8722 0.5764,-0.3307 -1.05764,0.8055 -1.60186,1.1869 -1.76368,1.2358 -3.42055,2.478 -5.28846,3.5551 -9.22628,5.3205 -18.44791,10.649 -27.67186,15.9735 -9.90921,5.3494 -5.97125,3.2521 21.71201,-12.7098 0.59848,-0.3451 -1.15352,0.7612 -1.74431,1.1193 -1.69621,1.028 -3.32903,2.0855 -4.88896,3.3232 -3.00487,2.817 -6.64417,5.0956 -8.78585,8.7325 -1.22622,1.9819 -2.60112,3.1324 -3.75189,4.8147 -1.14075,1.6676 -1.61053,3.8498 -3.21974,5.2348 -2.35647,2.5723 -2.7018,6.2215 -4.43842,9.1903 -0.86547,1.6078 -2.09661,2.9044 -2.99394,4.4602 -1.33279,2.3108 -1.49766,5.0411 -2.47156,7.487 -1.96067,6.4204 -2.87321,13.0492 -4.19523,19.6175 0,0 -27.05609,12.961 -27.05609,12.961 z"
       inkscape:connector-curvature="0" />
    <path
       style="fill:#000000;fill-opacity:0;stroke:#000000;stroke-opacity:1"
       id="path5477"
       d="m -90.650262,1623.6934 c 4.911944,3.7604 9.800261,7.6841 15.480984,10.2194 3.86397,1.3554 7.926466,1.4923 11.877493,2.4866 3.413051,0.3396 6.58619,1.4127 9.887836,2.2421 3.738413,0.9768 7.376527,0.6882 11.131309,0.1396 4.451095,-0.6967 8.944421,-1.0032 13.442103,-1.1707 4.851531,-0.1162 9.705636,-0.092 14.55821,-0.071 6.3215022,-0.2595 12.5724583,0.7851 18.850636,1.358 5.695416,0.514 11.414876,0.6034 17.129106,0.6745 6.124345,0.3953 12.144114,-0.2845 18.203553,-1.0428 5.625966,-0.5674 10.964485,-2.3281 16.655151,-2.159 5.568717,0.7331 11.04059,0.4616 16.59931,-0.086 4.500395,-0.052 8.801889,-1.0317 13.191502,-1.8582 4.237622,-0.7602 8.544333,-0.8388 12.835317,-0.9114 4.968762,-0.047 9.938052,-0.035 14.907052,-0.038 4.2792,-0 8.5584,-0 12.83761,-0 4.11691,0 8.23384,-0.01 12.35072,0.011 4.48228,0.8518 9.00071,1.4267 13.54929,1.7566 4.10634,0.1117 8.09004,0.1361 12.09408,1.069 3.49401,1.0637 6.99739,0.1074 10.53079,-0.2712 4.00223,-0.3952 8.02535,-0.4735 12.04371,-0.5272 5.19346,-0.1662 10.42256,0.3881 15.57567,-0.3512 4.61763,-0.9975 8.29411,-1.4073 12.96808,-0.7672 4.19434,0.2288 8.19224,1.3759 12.29955,2.1147 5.95194,1.4599 11.34434,4.1532 16.85123,6.8039 8.2448,4.3898 16.06889,9.4459 23.04851,15.6599 2.34325,2.6235 4.99801,4.9652 7.14325,7.7656 1.13657,1.4838 1.96227,3.1269 3.29332,4.4465 -3.0251,-10.9527 0.2788,-0.8328 -25.83607,13.2533 -0.39204,0.2114 0.32901,-0.8287 0.46534,-1.2527 0.18823,-0.5855 0.36469,-1.1757 0.50763,-1.7738 0.38467,-1.6097 0.51507,-2.7395 0.75988,-4.3836 0.80586,-4.6355 1.56445,-9.2709 3.78036,-13.4599 1.88376,-3.6237 4.86363,-6.2323 7.9043,-8.8376 14.73618,-10.3286 23.21539,-14.9777 37.62327,-19.5431 4.72752,-1.2863 9.6697,-1.5163 14.54448,-1.6471 5.95638,-0.1031 11.91431,-0.041 17.87138,-0.043 4.93137,-0.01 9.86274,-0.014 14.79412,-0.019 5.54712,0.012 11.09399,0.052 16.64122,0.049 6.3282,0.4278 12.45776,-0.6945 18.5928,-2.0465 6.58462,-1.3202 13.30896,-1.6354 20.00255,-1.8846 5.6245,-0.1639 11.25257,-0.1611 16.87905,-0.1685 8.75154,0.1341 17.5077,-0.021 26.24844,0.4503 8.11262,0.5768 16.223,1.1683 24.35191,1.4543 5.20862,0.1487 10.41995,0.1607 15.63031,0.1575 6.53656,-10e-4 13.07275,0.059 19.60934,0.051 6.80672,-0 13.6134,-0.023 20.42006,-0.051 5.04404,-0.041 10.08807,-0.01 15.13214,-0 5.93413,0.038 11.86829,-10e-5 17.80244,0.01 5.20734,-0.011 10.41453,-0.025 15.62185,-0 5.56494,-0.014 11.12984,0.01 16.69476,0.01 5.90657,0.013 11.81312,0.01 17.71968,-0.011 5.63012,0.3794 11.1535,-0.4546 16.7321,-1.0198 5.87597,-1.1483 11.67303,-2.6987 17.42885,-4.3516 2.63407,-0.8752 5.63356,-1.3294 8.13985,-2.5742 0.74536,-0.3702 2.76779,-1.8432 2.04039,-1.4388 -23.64025,13.1409 -30.31684,19.9907 -22.36499,12.1221 2.74956,-3.4119 4.53985,-7.3115 5.9833,-11.4062 1.48105,-4.071 2.9534,-8.1456 4.46882,-12.2045 0,0 27.16725,-12.6671 27.16725,-12.6671 l 0,0 c -1.45288,4.086 -3.01969,8.1238 -4.47015,12.207 -1.6001,4.2339 -2.84562,8.5466 -5.60054,12.2491 -7.67667,12.6494 -25.08255,17.8786 -39.03003,21.8953 -5.84751,1.5331 -11.66975,3.2719 -17.69723,3.9513 -5.6531,0.6371 -11.28756,1.0486 -16.98401,0.8099 -5.89622,-0.018 -11.79245,-0.024 -17.68869,-0.011 -5.57147,-10e-5 -11.14291,0.021 -16.71439,0.01 -5.20395,0.021 -10.40777,0.01 -15.61174,-0 -5.93883,0.01 -11.87767,-0.033 -17.81648,0 -5.04036,0 -10.08068,0.037 -15.12102,-0 -6.76301,-0.028 -13.52606,-0.046 -20.28913,-0.042 -6.59635,-0 -13.19218,0.072 -19.78852,0.07 -5.20515,-0.024 -10.41175,-0.051 -15.61132,-0.3238 -8.03591,-0.4155 -16.04835,-1.1423 -24.07804,-1.6568 -8.84642,-0.3165 -17.69229,-0.1147 -26.54243,-0.075 -5.56801,-0.013 -11.13764,-0.02 -16.70253,0.1967 -6.62075,0.3093 -13.24959,0.817 -19.72861,2.2975 -6.25029,1.2593 -12.56707,1.8092 -18.94813,1.5382 -5.59087,-0 -11.18142,0.038 -16.7722,0.043 -4.89373,-0.014 -9.78739,-0.04 -14.68107,-0.065 -5.95252,-0.019 -11.9079,-0.036 -17.85691,0.1999 -4.761,0.2907 -9.55459,0.6958 -14.07782,2.3314 -11.34285,3.9308 -31.14733,14.7566 13.92948,-9.9503 -3.15985,2.1305 -6.32627,4.5992 -8.3602,7.8732 -2.97167,3.9047 -3.35772,7.6015 -4.35837,12.2967 -0.0923,0.8049 -0.82286,7.6038 -1.25084,7.8904 -25.8297,17.3006 -18.64617,23.3403 -27.33532,15.0378 -3.07156,-4.1954 -5.7663,-8.6446 -9.78436,-12.0893 -6.8426,-5.9657 -14.46088,-10.902 -22.58934,-14.9535 -5.40411,-2.4623 -10.86155,-4.7777 -16.69588,-6.0129 -4.03316,-0.818 -8.06249,-1.5655 -12.17666,-1.8648 -4.23939,-0.2381 -8.35326,0.7585 -12.55853,1.1712 -5.2559,0.2279 -10.51968,0.075 -15.77847,0.2309 -3.97366,0.1021 -7.94808,0.2723 -11.89756,0.7479 -3.75317,0.4089 -7.41641,0.6563 -11.09482,-0.4617 -3.9108,-0.6688 -7.89579,-0.3869 -11.83525,-0.8306 -4.47647,-0.4425 -8.90848,-1.2558 -13.39522,-1.5516 -4.12599,0.02 -8.25204,0.01 -12.37807,0.01 -4.266292,-0 -8.53258,-0.014 -12.798857,-0.028 -4.953188,-0.012 -9.907326,-0.031 -14.859177,0.107 -4.217431,0.1588 -8.436629,0.4492 -12.576182,1.3239 -4.40586,0.8588 -8.837241,1.2912 -13.317776,1.569 -5.57638,0.4208 -11.093683,0.1388 -16.672382,-0.091 -5.546253,0.4572 -10.930921,1.9491 -16.486067,2.3828 -6.1260068,0.6901 -12.2486016,0.9708 -18.4154456,0.7116 -5.7620359,-0.079 -11.5259214,-0.2558 -17.2587964,-0.8848 -6.227515,-0.6277 -12.448741,-1.3885 -18.723449,-1.0948 -4.855811,0.028 -9.714297,0.02 -14.566035,0.2469 -4.449932,0.2517 -8.878561,0.7095 -13.293316,1.3251 -4.01024,0.3679 -7.986465,0.1107 -11.876758,-1.0057 -3.244224,-0.9208 -6.531585,-1.4837 -9.828477,-2.1836 -4.082318,-0.9203 -8.357021,-1.1115 -12.139052,-3.1055 -5.69601,-3.0111 -10.72108,-7.0794 -15.93793,-10.8307 0,0 25.427918,-15.852 25.427918,-15.852 z"
       inkscape:connector-curvature="0" />
    <path
       style="fill:#000000;fill-opacity:0;stroke:#000000;stroke-opacity:1"
       id="path5479"
       d="m 271.64377,1680.1705 c -1.71695,5.5962 -4.47051,10.8354 -7.46308,15.846 -2.3065,3.4155 -5.17646,6.2067 -8.73995,8.2654 -9.13159,5.2753 -18.27904,10.5232 -27.41855,15.7849 -3.90594,1.2321 -7.93062,2.1452 -11.97554,2.8371 -5.55118,1.8182 -11.42483,2.2308 -17.21747,2.5905 -5.87645,0.6834 -11.53821,2.4026 -17.34642,3.4609 -5.7037,0.9542 -11.37587,2.0527 -17.05624,3.1504 -7.72185,1.0347 -15.48636,1.4025 -23.21803,2.3523 -8.05423,0.6719 -16.03823,1.9325 -24.0903,2.6278 -9.25351,0.5212 -18.538605,1.0009 -27.798692,0.4729 -8.991818,-0.775 -18.000138,-1.2476 -27.020327,-1.5046 -8.088983,-0.1691 -16.15426,0.8593 -24.225057,1.3533 -7.545312,0.3916 -15.102929,0.4547 -22.65676,0.5008 -7.2968821,0.011 -14.59379905,0.017 -21.8906914,0.01 -7.0973356,-0.022 -14.1946646,0 -21.2919996,0 -6.581366,0 -13.162627,0.01 -19.743998,-0 -6.430888,-0.3838 -12.76604,0.7611 -19.144881,1.3479 -5.648988,1.0638 -11.242356,2.4789 -16.755723,4.1053 -5.50442,1.5628 -11.199374,2.2638 -16.836741,3.1814 -7.70431,1.3479 -15.41561,2.3637 -23.22645,2.8695 -7.94971,0.6821 -15.97278,0.1296 -23.90194,0.9713 -6.1762,0.2549 -11.91772,2.1961 -17.69131,4.218 -5.52734,1.8975 -10.35616,5.2062 -15.66313,7.555 -10.84205,4.684 -32.48498,17.8512 11.92465,-7.6136 -4.55389,2.802 -8.21941,6.6214 -11.58061,10.7228 -2.77412,3.5751 -5.15981,7.3852 -6.99213,11.5176 -2.33994,5.0454 -5.04289,9.8951 -7.00135,15.1089 -1.8621,5.2197 -3.43736,10.5422 -4.79696,15.9137 -0.95791,4.56 -2.06607,9.0935 -3.43935,13.5468 -1.44286,3.3884 -2.77406,6.7509 -3.75518,10.3041 -4.20519,12.2706 -20.01389,23.1762 -32.87162,20.033 -5.82686,-2.5114 -10.35433,-7.5664 -14.84876,-11.9492 -4.26637,-4.6122 -7.60784,-9.9286 -12.03983,-14.3823 -4.63542,-4.6566 -8.89393,-9.6557 -13.28743,-14.5372 -3.51259,-3.5548 -7.25043,-6.8842 -11.24322,-9.8863 -12.17283,-9.9564 11.78559,-22.013 24.92414,-20.5791 3.82292,-0.038 7.11688,1.3488 10.15431,3.5837 2.87834,1.9671 5.42366,4.3597 7.69831,6.9981 2.52498,2.2398 4.4939,5.1109 7.40444,6.8753 2.50012,1.9424 5.16329,3.6699 7.40268,5.9281 2.94594,2.4841 4.89258,5.5196 6.85259,8.7714 1.39485,2.9974 3.00137,5.8862 4.50626,8.8317 1.99289,2.6192 4.31358,5.1527 6.84797,7.2817 2.47698,2.3132 4.73404,4.8637 7.9704,6.0534 3.50565,0.8114 7.17947,1.094 10.72978,0.505 8.162,-2.1125 15.58301,-6.3367 23.04197,-10.1567 1.21741,-0.5253 14.71977,-6.3581 15.27135,-6.5648 2.73854,-1.0259 18.75894,-6.0821 21.02217,-6.807 21.49847,-6.8861 1.77464,-0.6312 23.9155,-7.6249 21.515079,-5.8241 42.26864,-13.9527 63.384131,-21.0016 1.826001,-0.5543 3.652003,-1.1086 5.478005,-1.6629 0,0 -23.30634,18.0015 -23.30634,18.0015 l 0,0 c -1.750416,0.5269 -3.500832,1.0537 -5.251248,1.5806 -20.904406,6.8131 -41.532598,14.465 -62.709048,20.4376 -20.48824,6.5466 -41.33821,12.4365 -60.6882,21.9814 -7.71538,3.9457 -15.53836,8.4225 -24.24284,9.6446 -3.96648,0.084 -8.00798,-0.1377 -11.69994,-1.7352 -3.21553,-1.7404 -5.74557,-4.314 -8.39302,-6.8051 -2.73077,-2.4781 -5.4308,-5.1511 -7.45701,-8.2389 -1.48581,-2.8845 -3.11093,-5.6924 -4.42177,-8.6611 -1.79411,-3.0455 -3.6485,-5.7981 -6.43875,-8.0744 -2.2428,-2.0161 -4.76481,-3.6965 -7.16129,-5.5226 -2.86331,-2.2004 -5.17329,-4.9908 -7.74784,-7.5102 -2.17343,-2.3923 -4.61882,-4.5339 -7.3144,-6.3247 -2.89318,-1.6939 -5.86963,-2.3122 -9.22941,-2.138 -10.95828,0.9154 -0.87978,0.2723 23.25955,-15.3925 0.17258,-0.112 -0.81142,-0.4205 -0.47296,0.2564 0.17222,0.3444 0.44356,0.6337 0.71273,0.9091 0.41604,0.4256 0.88999,0.7905 1.33499,1.1857 3.98726,3.2517 7.88646,6.6254 11.37247,10.421 4.3408,4.8613 8.60416,9.7929 13.18376,14.434 4.37824,4.4754 7.83196,9.6681 11.99854,14.3342 3.94901,3.8258 8.3579,8.984 13.91678,10.1166 11.06925,-1.2564 1.48175,-0.4004 -22.60049,14.0243 -0.40852,0.2447 0.92273,-0.2577 1.34922,-0.4695 1.43452,-0.7125 2.07553,-1.9236 2.48169,-3.4184 1.425,-3.3497 1.60195,-7.2122 3.86471,-10.2536 1.38154,-4.4153 2.72697,-8.8546 3.58452,-13.4077 1.27564,-5.4692 2.85507,-10.8807 4.72791,-16.1745 1.64632,-5.3832 4.29482,-10.2869 6.78715,-15.3116 1.9138,-4.2836 3.75751,-8.4712 6.74718,-12.1614 3.11889,-4.4401 6.81115,-8.5045 11.23106,-11.6845 13.08778,-7.6841 25.50923,-15.8177 39.31273,-21.896 5.16466,-2.6319 10.24923,-5.4368 15.80193,-7.2099 5.91455,-1.905 11.85745,-3.4332 18.11534,-3.6216 7.91324,-0.4147 15.85569,-0.1711 23.759764,-0.8553 7.806179,-0.6788 15.518655,-1.8808 23.236516,-3.2203 5.59298,-0.9902 11.245427,-1.7203 16.678252,-3.4494 5.620636,-1.4787 11.247137,-3.0572 17.043961,-3.6733 6.413953,-0.6747 12.817614,-1.3977 19.283209,-1.0862 6.582387,-0.01 13.164661,-0.01 19.7470418,0 7.0868326,0 14.1736362,0.033 21.2604822,0.02 7.291674,5e-4 14.583402,0.028 21.874985,-0.025 7.514693,-0.058 15.032904,-0.1402 22.535098,-0.6201 8.093907,-0.5333 16.195037,-1.4662 24.315956,-1.0682 9.015543,0.3245 18.014605,0.8904 27.011215,1.5525 9.20851,0.2749 18.43367,-0.096 27.61441,-0.8454 8.04039,-0.8326 16.04782,-1.9474 24.09519,-2.7171 7.7166,-0.8788 15.51108,-1.0976 23.14951,-2.5878 5.69692,-1.1482 11.42375,-2.1398 17.13782,-3.1974 5.7994,-1.1871 11.54412,-2.7378 17.47701,-3.1284 5.79448,-0.5188 11.50643,-1.3951 17.12047,-2.9575 3.89988,-0.8628 7.92795,-1.6287 11.45054,-3.5887 -7.96462,4.6216 -15.92924,9.2432 -23.89386,13.8647 1.89483,-1.1944 4.16495,-1.9801 5.86076,-3.4626 1.26166,-1.1029 2.06565,-2.6708 3.46373,-3.6437 3.29154,-4.4931 5.72049,-9.7183 7.77521,-14.873 0,0 27.05609,-12.961 27.05609,-12.961 z"
       inkscape:connector-curvature="0" />
    <path
       style="fill:#000000;fill-opacity:0;stroke:#000000;stroke-opacity:1"
       id="path5481"
       d="m 78.482327,1909.6835 c 4.534186,11.2157 9.099771,22.417 14.979369,33.0162 8.930754,14.0924 20.712724,26.1646 33.401204,36.8891 8.75212,8.2114 19.2596,13.8603 29.44957,19.9719 5.32836,3.1958 10.53607,6.5894 15.85313,9.8039 16.99808,11.0458 35.12913,20.0432 53.9128,27.5804 3.90066,1.4315 7.76451,2.9675 11.70197,4.2943 5.04245,1.6992 21.81643,6.6603 26.63935,8.0731 10.7721,3.1553 21.48258,6.5304 32.32084,9.4504 6.30107,1.6976 12.67284,3.1209 19.00926,4.6813 27.45086,6.3858 55.11001,11.8345 83.09473,15.2746 17.14845,2.1079 22.77292,2.3609 39.90509,3.7034 31.36718,2.1125 62.81391,2.238 94.23682,2.1983 19.70263,-0.095 39.40528,-0.1891 59.10808,-0.2384 18.00405,0.5054 35.93615,-1.2282 53.84675,-2.8224 18.50758,-2.2087 37.24116,-1.3519 55.76412,-3.2163 4.15513,-0.4183 8.27789,-1.1121 12.41683,-1.6681 4.24649,-0.7811 8.50964,-1.4766 12.73947,-2.3435 25.07668,-5.139 0.53428,-0.7065 25.90857,-5.6784 4.42424,-0.8669 8.88645,-1.5312 13.3124,-2.3893 11.83657,-2.2948 13.93811,-2.9372 25.55858,-5.7369 23.18784,-5.31 46.60653,-9.8206 69.06617,-17.7936 6.08473,-2.1805 12.13713,-4.4185 17.89933,-7.3628 1.35267,-0.6911 5.32336,-2.9282 4.00883,-2.167 -7.30713,4.2312 -29.29279,16.8131 -21.98798,12.5779 9.51924,-5.5191 19.08757,-10.9531 28.63136,-16.4296 1.07048,-0.5427 4.24784,-2.2333 3.21144,-1.6281 -7.53611,4.4009 -30.33344,17.2751 -22.71528,13.0178 11.41015,-6.3763 23.82282,-15.7003 37.1501,-19.576 0.97241,-0.3342 1.95055,-0.6522 2.91722,-1.0026 1.99279,-0.7225 4.03928,-1.3126 5.97559,-2.1751 0.94391,-0.4204 3.61014,-2.0126 2.7121,-1.5014 -24.3402,13.8539 -30.37301,18.2216 -20.72478,11.4252 5.48424,-4.0873 9.71685,-9.4655 15.01428,-13.7754 14.76996,-11.4473 73.69707,-43.6595 18.67573,-12.4058 2.99783,-2.4358 6.63665,-3.9555 9.58271,-6.4541 -5.19121,-3.486 -10.62219,-6.576 -16.1546,-9.4795 -17.6682,-8.7807 -36.46981,-14.8507 -55.22941,-20.7871 -7.39957,-2.2805 -14.90977,-4.1741 -22.34079,-6.3442 -1.89541,-0.5535 -3.73442,-1.6663 -5.70738,-1.5863 -0.23192,0.01 -0.28522,0.3662 -0.42783,0.5494 8.7853,-5.1356 17.22904,-10.9061 26.3559,-15.4067 0.73112,-0.3606 1.29383,0.9956 1.98196,1.4326 4.7052,2.9883 9.76429,5.5237 14.76209,7.9719 6.6916,2.5216 13.18621,5.4639 19.53328,8.7381 3.07299,2.1798 6.33515,4.1321 9.90888,5.354 4.41259,1.1936 8.69825,2.7587 13.16119,3.7977 4.91451,1.0768 9.94587,1.2527 14.95557,1.3638 4.66835,0.06 8.50842,-0.7969 12.21272,2.5409 3.61759,5.4168 2.63668,12.765 2.59527,18.9545 -0.37292,23.0636 -0.54559,46.1287 -0.59019,69.1951 0.49837,16.4535 -0.37649,33.0039 0.82677,49.434 0,0 -26.35219,13.617 -26.35219,13.617 l 0,0 c -0.70109,-16.7306 0.90932,-33.5197 0.41683,-50.2607 0.003,-22.8635 -0.043,-45.7289 -0.52169,-68.5883 -0.1375,-4.626 0.5419,-12.1467 -1.82427,-16.3192 -3.24351,-1.8973 -7.46574,-0.5542 -11.02796,-1.0634 -5.14279,-0.2178 -10.29131,-0.5862 -15.29253,-1.8978 -4.53802,-1.193 -9.02617,-2.5832 -13.48505,-4.0425 -3.54128,-1.5353 -6.8326,-3.5124 -10.01218,-5.6956 -6.22105,-3.3587 -12.72729,-6.0891 -19.22935,-8.8546 -5.12327,-2.5958 -10.49882,-5.0716 -15.29716,-8.25 -0.79985,-0.5298 -2.99216,-1.0824 -2.29312,-1.7395 7.22498,-6.7915 15.67989,-12.1425 23.51984,-18.2137 8.61043,4.4042 18.98207,5.6082 27.90545,9.1629 18.99522,6.0798 37.94188,12.4463 56.0856,20.7965 3.98495,2.0045 14.01907,6.7071 17.08477,9.9942 0.53299,0.5715 0.89041,1.2845 1.33562,1.9268 0.11118,0.5901 0.3656,1.1708 0.33353,1.7705 -0.21541,4.0285 -6.66736,5.1371 -9.04758,7.4037 -48.43075,28.9293 -27.06377,16.0105 -5.61266,3.7233 1.11075,-0.6363 -2.16615,1.3646 -3.25252,2.0416 -3.38831,2.1116 -6.53527,4.4955 -9.92234,6.608 -2.08596,1.4982 -3.92039,2.6985 -5.77538,4.4849 -3.11897,3.0036 -5.52605,6.7624 -9.10946,9.288 -12.68738,9.8888 -26.8746,17.7886 -42.17695,22.5664 -2.97485,1.1213 -2.83175,0.992 -5.6924,2.3706 -0.96477,0.4649 -3.78835,1.996 -2.86688,1.4503 49.11789,-29.0899 8.55163,-4.1774 -8.69038,4.74 7.41324,-4.3057 29.70728,-17.1279 22.23973,-12.9171 -16.86331,9.5089 -31.96875,19.922 -50.46988,25.3905 -22.5003,7.3148 -45.743,11.8648 -68.76159,17.2142 -12.91156,3.003 -25.85769,5.4281 -38.84955,8.0326 -8.69746,1.7436 -17.30487,3.9201 -26.00751,5.6377 -4.27555,0.8438 -8.58381,1.5126 -12.87571,2.2688 -4.18745,0.5178 -8.36166,1.157 -12.56233,1.5534 -18.63777,1.7586 -37.45867,1.2381 -56.06485,3.5243 -17.96321,1.6229 -35.94806,3.1984 -54.00694,2.6282 -19.61451,0.044 -39.22942,0.135 -58.84383,0.025 -31.13312,-0.2748 -62.27491,-1.0644 -93.34722,-3.1038 -17.8674,-1.4939 -21.95938,-1.6348 -39.84017,-3.9473 -28.06751,-3.6301 -55.83189,-9.1025 -83.41901,-15.373 -6.43584,-1.5392 -12.90163,-2.9583 -19.30752,-4.6177 -10.97618,-2.8435 -21.8494,-6.0709 -32.75629,-9.1695 -5.93949,-1.6874 -20.93837,-6.0361 -26.98762,-8.057 -3.98163,-1.3302 -7.89065,-2.8686 -11.83598,-4.3029 -19.02365,-7.5194 -37.31459,-16.5975 -54.49247,-27.7669 -5.30215,-3.2144 -10.54307,-6.53 -15.86988,-9.7033 -10.34177,-6.161 -20.79279,-12.159 -29.61479,-20.4992 -12.921912,-10.9816 -25.239793,-23.1726 -34.367019,-37.5581 -5.77941,-10.7774 -10.388869,-22.0864 -15.793493,-33.0347 0,0 26.215149,-14.5645 26.215149,-14.5645 z"
       inkscape:connector-curvature="0" />
  </g>
</svg>
